<svg width="65" height="72" viewBox="0 0 65 72" fill="none" xmlns="http://www.w3.org/2000/svg">
<path d="M3.46183 29.2187C4.03641 33.1782 6.77036 36.4878 10.5502 37.799C7.43998 45.4642 3.83976 58.1473 9.76304 65.9136C12.8529 69.9516 17.9374 72 24.8758 72C27.4818 71.9703 30.0812 71.7198 32.6448 71.2513C33.5962 71.1002 34.54 70.8997 35.4705 70.6514C39.0729 71.4902 42.7539 71.9429 46.4519 72C53.3892 72 58.4748 69.9516 61.5718 65.9125C67.9197 57.6002 63.4439 43.769 59.9052 35.7133C63.8174 32.2712 64.7095 26.5243 62.0233 22.0589C59.3377 17.5935 53.8429 15.6874 48.9688 17.5309C44.0948 19.3738 41.2361 24.4385 42.1771 29.5637C43.1175 34.6888 47.589 38.4082 52.7998 38.4C52.9453 38.4 53.0865 38.3846 53.231 38.3785C56.9125 46.626 59.4482 56.8202 55.8419 61.5526C53.6413 64.4387 49.015 64.9836 44.7501 64.7556C46.8611 62.9626 48.6261 60.7983 49.9582 58.3704C53.5584 51.6313 53.2777 44.8462 49.2386 41.0834C46.9034 39.0295 43.8179 38.0413 40.7242 38.3566C38.9301 38.5038 37.197 39.0767 35.6688 40.027C34.1422 39.0773 32.4114 38.5043 30.6189 38.3566C27.523 38.0385 24.4342 39.0278 22.099 41.0856C18.0561 44.8489 17.7649 51.6094 21.3393 58.2803C22.6758 60.7456 24.4567 62.9429 26.5919 64.7606C22.422 64.9836 17.7237 64.4711 15.4946 61.5564C11.9054 56.8762 14.4443 46.6562 18.1165 38.3879H18.3994C23.7058 38.3835 28.2008 34.4784 28.9474 29.2247L32.3361 6.87744C32.5871 5.15753 32.0856 3.4129 30.9601 2.08905C29.84 0.766846 28.1953 0.00274657 26.4623 0H21.5997C19.6117 0 18 1.61169 18 3.60022C18 5.5882 19.6117 7.19989 21.5997 7.19989H25.0653L21.8771 28.1398C21.6365 29.8828 20.149 31.1819 18.3901 31.1858H14.0098C12.2503 31.1814 10.7628 29.8817 10.5216 28.1387L7.33451 7.19989H10.8001C12.7881 7.19989 14.3998 5.5882 14.3998 3.60022C14.3998 1.61169 12.7881 0 10.8001 0H5.9376C4.2045 0.00274657 2.5604 0.765747 1.43979 2.08795C0.311498 3.41895 -0.189478 5.17126 0.0648551 6.89777L3.46183 29.2187ZM44.4002 27.5999C44.4002 22.9609 48.1608 19.2003 52.7998 19.2003C57.4393 19.2003 61.1999 22.9609 61.1999 27.5999C61.1999 32.2394 57.4393 36 52.7998 36C48.163 35.9945 44.4051 32.2372 44.4002 27.5999ZM57.7497 63.0071C62.7611 56.4335 58.0765 43.519 55.6897 37.9957C56.4571 37.7853 57.1993 37.4897 57.9013 37.1146C60.7281 43.6943 65.3028 57.0707 59.6591 64.4546C56.1446 69.0469 49.3006 70.5745 39.4058 68.9579C40.2627 68.397 41.0884 67.7884 41.8777 67.1353L42.1381 66.9298C43.579 67.1045 45.0291 67.1973 46.481 67.2083C51.8401 67.2083 55.6211 65.8021 57.7497 63.0071ZM13.5791 63.0071C16.1483 66.3673 21.1141 67.7005 28.3585 67.0095C28.4008 67.0193 28.4436 67.027 28.4865 67.032C28.5672 67.032 28.648 67.0237 28.7265 67.0078L28.9836 66.9611H29.005C29.2358 66.9386 29.4758 66.9133 29.7049 66.8798H29.7142C30.2075 66.815 34.5779 66.2173 36.2758 65.2165C36.2829 65.2165 36.2868 65.2033 36.2939 65.1995C36.3011 65.1962 36.317 65.1912 36.3274 65.1841C40.9367 62.1409 44.3546 58.8433 45.6878 56.1698C48.2256 51.4583 48.336 46.8023 45.9657 44.5858L45.9586 44.5787C44.593 43.4636 42.8379 42.9401 41.0845 43.1252C39.3311 43.3109 37.7243 44.1892 36.6213 45.5652C36.3692 45.8256 36.022 45.9717 35.66 45.9701C35.2975 45.9684 34.9514 45.819 34.7015 45.557C33.5984 44.137 31.9455 43.251 30.1526 43.1169C29.9433 43.1027 29.7345 43.0895 29.5417 43.0895C28.0113 43.0538 26.5227 43.5872 25.3631 44.5858C22.9933 46.8012 23.0906 51.4259 25.5888 56.0797C26.771 58.4242 29.4445 61.1796 33.0513 63.8218C32.0241 64.0728 30.8518 64.2865 29.9125 64.4222C27.2752 62.4875 25.0763 60.0183 23.4597 57.175C20.4 51.4666 20.5044 45.8399 23.7228 42.8461C26.9292 40.1583 31.5517 39.9919 34.9426 42.4429C35.3694 42.7626 35.9561 42.7626 36.3829 42.4429C39.7733 39.9941 44.393 40.1583 47.6005 42.8423C50.8211 45.8427 50.9145 51.4896 47.8274 57.264C46.1135 60.2089 43.797 62.7583 41.029 64.7446L40.3797 65.2593C39.4657 66.0388 38.4813 66.7315 37.4398 67.3297C35.8061 68.129 34.0527 68.6563 32.2488 68.8898C29.8164 69.3369 27.3505 69.5781 24.8769 69.6094C18.7257 69.6094 14.2823 67.8779 11.6774 64.465C6.21225 57.3047 10.4458 44.4023 12.937 38.334C13.2973 38.3687 13.6571 38.3917 14.0169 38.3917H15.4979C13.0798 44.075 8.68693 56.6246 13.5791 63.0082V63.0071ZM35.6589 62.7336C31.7901 60.0853 28.8518 57.2245 27.7163 54.9695C25.819 51.4402 25.5108 47.729 26.9962 46.3425C27.713 45.7586 28.6172 45.4548 29.5417 45.4872C29.6829 45.4872 29.8356 45.4982 29.9554 45.5065C31.0611 45.5845 32.0834 46.1206 32.7755 46.9858C33.4699 47.8685 34.5306 48.3849 35.6534 48.3865C36.7768 48.3882 37.8386 47.8751 38.5357 46.9946C39.2262 46.1266 40.2473 45.5872 41.3531 45.5065C42.4139 45.3851 43.4801 45.6866 44.3194 46.3464C45.6153 47.5642 45.7702 50.9365 43.5465 55.069C42.4655 57.247 39.5409 60.0826 35.6639 62.7347L35.6589 62.7336ZM21.5997 2.39996H22.8V4.79993H21.5997C20.9372 4.79993 20.4 4.2627 20.4 3.60022C20.4 2.93719 20.9372 2.39996 21.5997 2.39996ZM10.6798 2.39996H10.8001C11.4626 2.39996 11.9999 2.93719 11.9999 3.60022C11.9999 4.2627 11.4626 4.79993 10.8001 4.79993H9.59989V2.39996H10.6798ZM3.26627 3.64581C3.93039 2.85809 4.90763 2.40271 5.9376 2.39996H7.19993V4.79993H5.9376C5.58823 4.80048 5.25589 4.95264 5.02793 5.21796C4.80051 5.48328 4.69944 5.83429 4.75217 6.17981L8.14805 28.5002C8.56113 31.4193 11.0611 33.5891 14.0098 33.5869H18.3901C21.3382 33.5896 23.8382 31.4203 24.2507 28.5013L27.6477 6.18146C27.701 5.83539 27.5999 5.48383 27.3725 5.21851C27.1445 4.95319 26.8122 4.79993 26.4623 4.79993H25.1999V2.39996H26.4623C27.4928 2.40271 28.47 2.85864 29.1347 3.64581C29.812 4.44232 30.1136 5.49097 29.9641 6.52533L26.5666 28.8561C25.9926 32.9348 22.5083 35.9709 18.3901 35.9819H14.0098C13.55 35.9797 13.0913 35.9396 12.6382 35.8621C12.497 35.8044 12.3459 35.7737 12.1932 35.772C8.84787 35.0024 6.32047 32.2542 5.83323 28.8561L2.43845 6.5462C2.28464 5.50525 2.58622 4.44836 3.26627 3.64581Z" fill="#685251"/>
<path d="M58.8006 27.5999C58.8006 24.2864 56.1144 21.6002 52.8004 21.6002C49.4869 21.6002 46.8008 24.2864 46.8008 27.5999C46.8008 30.9139 49.4869 33.6 52.8004 33.6C56.1128 33.5962 58.7968 30.9122 58.8006 27.5999V27.5999ZM49.2007 27.5999C49.2007 25.6119 50.8124 24.0002 52.8004 24.0002C54.7889 24.0002 56.4006 25.6119 56.4006 27.5999C56.4006 29.5884 54.7889 31.2001 52.8004 31.2001C50.8124 31.2001 49.2007 29.5884 49.2007 27.5999V27.5999Z" fill="#685251"/>
</svg>
