<svg width="72" height="72" viewBox="0 0 72 72" fill="none" xmlns="http://www.w3.org/2000/svg">
<path d="M23.5863 8.37781C25.2301 6.90721 25.6602 4.50564 24.6289 2.55599C23.5975 0.606351 21.3702 -0.389524 19.2296 0.141828C17.0889 0.673179 15.5859 2.59499 15.5859 4.80061C15.586 6.69357 16.6986 8.40971 18.4267 9.18238C20.1547 9.95505 22.1756 9.63994 23.5863 8.37781ZM17.9859 4.80061C17.9859 3.47513 19.0605 2.40061 20.3859 2.40061C21.7114 2.40061 22.7859 3.47513 22.7859 4.80061C22.7859 6.12609 21.7114 7.20061 20.3859 7.20061C19.0605 7.20061 17.9859 6.12609 17.9859 4.80061V4.80061Z" fill="#685251"/>
<path d="M54.7504 8.37781C56.3942 6.90721 56.8242 4.50564 55.7929 2.55599C54.7616 0.606351 52.5343 -0.389524 50.3936 0.141828C48.253 0.673179 46.7499 2.59499 46.75 4.80061C46.7501 6.69357 47.8626 8.40971 49.5907 9.18238C51.3188 9.95505 53.3396 9.63994 54.7504 8.37781V8.37781ZM49.15 4.80061C49.15 3.47513 50.2245 2.40061 51.55 2.40061C52.8755 2.40061 53.95 3.47513 53.95 4.80061C53.95 6.12609 52.8755 7.20061 51.55 7.20061C50.2245 7.20061 49.15 6.12609 49.15 4.80061Z" fill="#685251"/>
<path d="M69.6236 26.8458C68.5996 26.3353 67.4137 26.2565 66.3312 26.627C65.2487 26.9976 64.3599 27.7865 63.8636 28.8174L59.5436 35.4474C59.1502 35.0212 58.6966 34.655 58.1972 34.3602C58.7657 33.5142 58.9329 32.4607 58.6544 31.4802L58.3316 29.8806C59.5337 30.0336 60.7321 29.5715 61.5204 28.651C62.3086 27.7306 62.5808 26.4753 62.2448 25.311L59.7248 16.3758C58.9945 13.7905 56.6368 12.0041 53.9504 12.0006H49.2224C46.538 12.0022 44.1806 13.7849 43.448 16.3674L40.928 25.2954C40.5851 26.4623 40.8545 27.7233 41.6443 28.6482C42.4341 29.573 43.6374 30.0366 44.8436 29.8806L44.5316 31.395C44.1409 32.7248 44.5516 34.1606 45.5864 35.0826V39.6246C44.7396 39.9361 43.9337 40.3491 43.1864 40.8546C43.1994 38.5112 41.8469 36.3746 39.7232 35.3838C41.2923 33.427 41.0849 30.5908 39.2478 28.8832C37.4106 27.1755 34.5669 27.1755 32.7297 28.8832C30.8926 30.5908 30.6852 33.427 32.2544 35.3838C30.1287 36.3732 28.7742 38.5101 28.7864 40.8546C28.039 40.3491 27.2331 39.9361 26.3864 39.6246V31.2006C28.3746 31.2006 29.9864 29.5888 29.9864 27.6006V19.2006C29.9824 15.2258 26.7612 12.0046 22.7864 12.0006H17.9864C14.0115 12.0046 10.7903 15.2258 10.7864 19.2006V27.6006C10.7864 29.5888 12.3981 31.2006 14.3864 31.2006V34.0278C13.6481 34.3523 12.9859 34.8277 12.4424 35.4234L8.14635 27.7086C7.67523 26.654 6.79206 25.839 5.70315 25.4538C4.10945 24.8742 2.32373 25.2975 1.15966 26.5306C-0.00441599 27.7638 -0.324067 29.5709 0.346353 31.1286C6.71835 43.9806 6.67395 44.4378 8.69835 46.2162L17.6624 54.351C16.3997 54.941 15.591 56.2069 15.5864 57.6006V68.4006C15.5864 70.3888 17.1981 72.0006 19.1864 72.0006H33.5864C34.4748 71.9975 35.3304 71.6638 35.9864 71.0646C36.6424 71.6638 37.4979 71.9975 38.3864 72.0006H52.7864C54.7746 72.0006 56.3864 70.3888 56.3864 68.4006V57.6006C56.3815 56.2066 55.5723 54.9407 54.3092 54.351L63.26 46.2294C64.3787 45.2549 65.2749 44.0513 65.888 42.7002L71.6 32.3802C72.5529 30.3048 71.6756 27.8481 69.6236 26.8458V26.8458ZM44.0516 27.4566C43.7438 27.3674 43.4845 27.1588 43.3314 26.8772C43.1784 26.5957 43.1443 26.2646 43.2368 25.9578L45.7568 17.0154C46.1973 15.467 47.6124 14.3993 49.2224 14.4006H53.9504C55.5608 14.4002 56.9756 15.4696 57.4148 17.019L59.9348 25.9698C60.0399 26.3316 59.969 26.7218 59.7432 27.0235C59.5175 27.3252 59.1631 27.5034 58.7864 27.5046C58.286 27.51 57.838 27.1957 57.6728 26.7234L56.3528 21.315C56.2588 20.8901 55.9421 20.5493 55.5251 20.4245C55.1082 20.2998 54.6564 20.4105 54.3444 20.7139C54.0324 21.0174 53.9092 21.466 54.0224 21.8862C55.6364 28.4862 55.1144 26.169 56.3408 32.067C56.4935 32.597 56.2653 33.1629 55.7876 33.4386C55.7003 33.4888 55.6197 33.5497 55.5476 33.6198C54.578 33.6172 53.6253 33.8732 52.7876 34.3614V33.6006C52.7876 32.9379 52.2503 32.4006 51.5876 32.4006C50.9248 32.4006 50.3876 32.9379 50.3876 33.6006V36.285L47.9876 38.343V34.4766C47.9871 34.0483 47.7585 33.6528 47.3876 33.4386C46.8869 33.1362 46.6659 32.5249 46.8572 31.9722C48.0572 26.193 47.5388 28.4838 49.1528 21.8862C49.2936 21.2495 48.9001 20.6168 48.2667 20.4616C47.6334 20.3063 46.9919 20.6853 46.8224 21.315L45.5024 26.715C45.2897 27.3059 44.655 27.6303 44.0516 27.4566ZM35.9864 30.0006C37.3118 30.0006 38.3864 31.0751 38.3864 32.4006C38.3864 33.7261 37.3118 34.8006 35.9864 34.8006C34.6609 34.8006 33.5864 33.7261 33.5864 32.4006C33.5864 31.0751 34.6609 30.0006 35.9864 30.0006V30.0006ZM34.7864 37.2006H37.1864C39.1746 37.2006 40.7864 38.8124 40.7864 40.8006C40.7864 43.6242 40.8812 42.8994 40.4996 43.4058C37.9904 46.8546 38.3864 49.6806 38.3864 54.0006C37.4979 54.0037 36.6424 54.3374 35.9864 54.9366C35.3304 54.3374 34.4748 54.0037 33.5864 54.0006C33.5864 49.665 33.9836 46.8558 31.4612 43.3902C31.1012 42.9042 31.1864 43.5978 31.1864 40.8006C31.1864 38.8124 32.7981 37.2006 34.7864 37.2006V37.2006ZM13.532 28.4334C13.308 28.2145 13.1832 27.9137 13.1864 27.6006V19.2006C13.1864 16.5496 15.3354 14.4006 17.9864 14.4006H22.7864C25.4373 14.4006 27.5864 16.5496 27.5864 19.2006V27.6006C27.5864 28.2634 27.0491 28.8006 26.3864 28.8006C25.7236 28.8006 25.1864 28.2634 25.1864 27.6006V21.6006C25.1864 20.9379 24.6491 20.4006 23.9864 20.4006C23.3236 20.4006 22.7864 20.9379 22.7864 21.6006V27.6006C22.7875 28.6165 23.2245 29.583 23.9864 30.255V38.343L21.5864 36.2886V33.6006C21.5864 32.9379 21.0491 32.4006 20.3864 32.4006C19.7236 32.4006 19.1864 32.9379 19.1864 33.6006V34.3506C18.4562 33.9182 17.6334 33.6664 16.7864 33.6162V30.2562C17.5485 29.584 17.9855 28.6169 17.9864 27.6006V21.6006C17.9864 20.9379 17.4491 20.4006 16.7864 20.4006C16.1236 20.4006 15.5864 20.9379 15.5864 21.6006V27.6006C15.5824 28.0857 15.2868 28.5207 14.8372 28.7029C14.3876 28.8852 13.8726 28.7788 13.532 28.4334V28.4334ZM8.20995 41.5866L2.52795 30.1302C2.16092 29.2414 2.5475 28.2203 3.41115 27.7974C3.88259 27.5633 4.43037 27.5367 4.92228 27.724C5.4142 27.9113 5.80557 28.2955 6.00195 28.7838C9.82155 35.6478 10.9964 37.839 11.3312 38.1822C14.114 41.0442 7.41075 34.3674 19.334 46.1718C19.8073 46.6247 20.5563 46.6143 21.0168 46.1485C21.4774 45.6827 21.4793 44.9336 21.0212 44.4654L13.8644 37.3854L14.444 36.8202C15.4501 35.852 16.9959 35.7185 18.1532 36.4998C22.2776 40.0362 23.1656 41.0598 25.1768 41.7114C28.7306 42.822 31.1597 46.1014 31.1864 49.8246V54.0006H20.8496C9.35715 43.5726 9.16275 43.707 8.20995 41.5866V41.5866ZM33.5864 69.6006H19.1864C18.5236 69.6006 17.9864 69.0634 17.9864 68.4006V62.4006H31.1864C31.8491 62.4006 32.3864 61.8634 32.3864 61.2006C32.3864 60.5379 31.8491 60.0006 31.1864 60.0006H17.9864V57.6006C17.9864 56.9379 18.5236 56.4006 19.1864 56.4006H33.5864C34.2491 56.4006 34.7864 56.9379 34.7864 57.6006V68.4006C34.7864 69.0634 34.2491 69.6006 33.5864 69.6006ZM52.7864 69.6006H38.3864C37.7236 69.6006 37.1864 69.0634 37.1864 68.4006V57.6006C37.1864 56.9379 37.7236 56.4006 38.3864 56.4006H52.7864C53.4491 56.4006 53.9864 56.9379 53.9864 57.6006V60.0006H40.7864C40.1236 60.0006 39.5864 60.5379 39.5864 61.2006C39.5864 61.8634 40.1236 62.4006 40.7864 62.4006H53.9864V68.4006C53.9864 69.0634 53.4491 69.6006 52.7864 69.6006ZM69.4664 31.2774L63.7448 41.6274C62.7848 43.755 62.5256 43.6542 51.1244 54.0006H40.7864V49.8246C40.8144 46.1024 43.2432 42.8244 46.796 41.7138C48.8504 41.049 49.7168 40.0206 53.7428 36.5634C54.9037 35.7298 56.4935 35.8396 57.5288 36.825L58.1084 37.389L50.9516 44.469C50.4934 44.9372 50.4953 45.6863 50.9559 46.1521C51.4164 46.6179 52.1654 46.6283 52.6388 46.1754C54.0452 44.7834 61.0088 37.935 60.6416 38.1858C60.7616 38.0658 60.752 37.9602 65.9276 30.0582C66.1336 29.5314 66.553 29.1164 67.082 28.9158C67.7572 28.6633 68.5176 28.8264 69.0298 29.3337C69.5419 29.841 69.7124 30.5998 69.4664 31.2774V31.2774Z" fill="#685251"/>
</svg>
