<svg width="63" height="72" viewBox="0 0 63 72" fill="none" xmlns="http://www.w3.org/2000/svg">
<path d="M11.9988 26.4C11.3361 26.4 10.7988 26.9372 10.7988 27.6C10.7988 28.2627 11.3361 28.8 11.9988 28.8H15.5988C16.2616 28.8 16.7988 28.2627 16.7988 27.6C16.7988 26.9372 16.2616 26.4 15.5988 26.4H11.9988Z" fill="#685251"/>
<path d="M20.3992 28.8H28.7992C29.462 28.8 29.9992 28.2627 29.9992 27.6C29.9992 26.9372 29.462 26.4 28.7992 26.4H20.3992C19.7365 26.4 19.1992 26.9372 19.1992 27.6C19.1992 28.2627 19.7365 28.8 20.3992 28.8Z" fill="#685251"/>
<path d="M10.7988 32.4C10.7988 33.0628 11.3361 33.6 11.9988 33.6H28.7988C29.4616 33.6 29.9988 33.0628 29.9988 32.4C29.9988 31.7373 29.4616 31.2 28.7988 31.2H11.9988C11.3361 31.2 10.7988 31.7373 10.7988 32.4Z" fill="#685251"/>
<path d="M11.9988 38.4H20.3988C21.0616 38.4 21.5988 37.8627 21.5988 37.2C21.5988 36.5373 21.0616 36 20.3988 36H11.9988C11.3361 36 10.7988 36.5373 10.7988 37.2C10.7988 37.8627 11.3361 38.4 11.9988 38.4Z" fill="#685251"/>
<path d="M28.8 36H25.2C24.5373 36 24 36.5373 24 37.2C24 37.8627 24.5373 38.4 25.2 38.4H28.8C29.4627 38.4 30 37.8627 30 37.2C30 36.5373 29.4627 36 28.8 36Z" fill="#685251"/>
<path d="M11.9988 48H15.5988C16.2616 48 16.7988 47.4627 16.7988 46.8C16.7988 46.1372 16.2616 45.6 15.5988 45.6H11.9988C11.3361 45.6 10.7988 46.1372 10.7988 46.8C10.7988 47.4627 11.3361 48 11.9988 48Z" fill="#685251"/>
<path d="M28.7992 45.6H20.3992C19.7365 45.6 19.1992 46.1372 19.1992 46.8C19.1992 47.4627 19.7365 48 20.3992 48H28.7992C29.462 48 29.9992 47.4627 29.9992 46.8C29.9992 46.1372 29.462 45.6 28.7992 45.6Z" fill="#685251"/>
<path d="M28.7988 50.4H11.9988C11.3361 50.4 10.7988 50.9373 10.7988 51.6C10.7988 52.2628 11.3361 52.8 11.9988 52.8H28.7988C29.4616 52.8 29.9988 52.2628 29.9988 51.6C29.9988 50.9373 29.4616 50.4 28.7988 50.4Z" fill="#685251"/>
<path d="M20.3988 55.2001H11.9988C11.3361 55.2001 10.7988 55.7373 10.7988 56.4001C10.7988 57.0628 11.3361 57.6001 11.9988 57.6001H20.3988C21.0616 57.6001 21.5988 57.0628 21.5988 56.4001C21.5988 55.7373 21.0616 55.2001 20.3988 55.2001Z" fill="#685251"/>
<path d="M28.8 55.2001H25.2C24.5373 55.2001 24 55.7373 24 56.4001C24 57.0628 24.5373 57.6001 25.2 57.6001H28.8C29.4627 57.6001 30 57.0628 30 56.4001C30 55.7373 29.4627 55.2001 28.8 55.2001Z" fill="#685251"/>
<path d="M37.2008 39.6001H46.8008C48.1256 39.5985 49.1992 38.5249 49.2008 37.2001V27.6001C49.1992 26.2752 48.1256 25.2016 46.8008 25.2001H37.2008C35.8759 25.2016 34.8023 26.2752 34.8008 27.6001V37.2001C34.8023 38.5249 35.8759 39.5985 37.2008 39.6001ZM37.2008 27.6001H46.8008V37.2001H37.2008V27.6001Z" fill="#685251"/>
<path d="M37.2008 58.7999H46.8008C48.1256 58.7984 49.1992 57.7248 49.2008 56.4V54C49.2008 53.3372 48.6635 52.8 48.0008 52.8C47.338 52.8 46.8008 53.3372 46.8008 54V56.4H37.2008V46.8H43.2008C43.8635 46.8 44.4008 46.2627 44.4008 45.6C44.4008 44.9372 43.8635 44.4 43.2008 44.4H37.2008C35.8759 44.4015 34.8023 45.4751 34.8008 46.8V56.4C34.8023 57.7248 35.8759 58.7984 37.2008 58.7999Z" fill="#685251"/>
<path d="M41.6489 49.5517C41.178 49.0969 40.4296 49.1034 39.9667 49.5663C39.5038 50.0292 39.4973 50.7776 39.9521 51.2485L42.3521 53.6485C42.577 53.8737 42.8822 54.0002 43.2005 54.0001C43.2286 54.0001 43.2574 53.9989 43.2854 53.9966C43.6325 53.9724 43.9519 53.7985 44.1605 53.5201L51.3605 43.9201C51.6177 43.5771 51.6724 43.123 51.504 42.7287C51.3356 42.3344 50.9697 42.06 50.544 42.0087C50.1184 41.9574 49.6977 42.1371 49.4405 42.4801L43.0702 50.9726L41.6489 49.5517Z" fill="#685251"/>
<path d="M54 7.2H43.5712C42.3637 6.13523 40.9075 5.39165 39.337 5.03784C38.7905 4.91914 38.4005 4.43581 38.4 3.8766V3.6C38.3978 1.61268 36.7873 0.00218245 34.8 0H27.6C25.6127 0.00218245 24.0022 1.61268 24 3.6V3.8766C23.9995 4.4355 23.6101 4.91871 23.064 5.03784C21.4932 5.39154 20.0368 6.13513 18.8291 7.2H8.4C3.76303 7.20536 0.00535634 10.963 0 15.6V63.6C0.00535634 68.237 3.76303 71.9946 8.4 72H54C58.637 71.9946 62.3946 68.237 62.4 63.6V15.6C62.3946 10.963 58.637 7.20536 54 7.2ZM18 19.2H44.4C45.7249 19.1985 46.7985 18.1249 46.8 16.8V14.4H52.8C54.1249 14.4015 55.1985 15.4751 55.2 16.8V62.4C55.1985 63.7249 54.1249 64.7985 52.8 64.8H9.6C8.27515 64.7985 7.20152 63.7249 7.2 62.4V16.8C7.20152 15.4751 8.27515 14.4015 9.6 14.4H15.6V16.8C15.6015 18.1249 16.6751 19.1985 18 19.2ZM23.5951 7.37928C25.2368 7.01559 26.4039 5.55809 26.4 3.8766V3.6C26.4006 2.93751 26.9375 2.4006 27.6 2.4H34.8C35.4625 2.4006 35.9994 2.93751 36 3.6V3.8766C35.9961 5.55827 37.1635 7.01583 38.8055 7.37928C42.0891 8.11296 44.4179 11.0354 44.4 14.4L44.4001 16.8H17.9999L18 14.4C17.9821 11.0352 20.3112 8.11267 23.5951 7.37928ZM60 63.6C59.9961 66.9121 57.3121 69.5961 54 69.6H8.4C5.08791 69.5961 2.4039 66.9121 2.4 63.6V15.6C2.4039 12.2879 5.08791 9.6039 8.4 9.6H16.8739C16.4418 10.352 16.1143 11.1595 15.9004 12H9.6C6.95018 12.0028 4.80278 14.1502 4.8 16.8V62.4C4.80278 65.0498 6.95018 67.1972 9.6 67.2H52.8C55.4498 67.1972 57.5972 65.0498 57.6 62.4V16.8C57.5972 14.1502 55.4498 12.0028 52.8 12H46.5C46.2861 11.1595 45.9586 10.352 45.5264 9.6H54C57.3121 9.6039 59.9961 12.2879 60 15.6V63.6Z" fill="#685251"/>
<path d="M31.1996 12C33.1878 12 34.7996 10.3883 34.7996 8.40005C34.7996 6.41182 33.1878 4.80005 31.1996 4.80005C29.2114 4.80005 27.5996 6.41182 27.5996 8.40005C27.6018 10.3874 29.2123 11.9979 31.1996 12ZM31.1996 7.20005C31.8623 7.20005 32.3996 7.73731 32.3996 8.40005C32.3996 9.06279 31.8623 9.60005 31.1996 9.60005C30.5369 9.60005 29.9996 9.06279 29.9996 8.40005C30.0002 7.73755 30.5371 7.20064 31.1996 7.20005Z" fill="#685251"/>
</svg>
