<svg width="24" height="44" viewBox="0 0 24 44" fill="none" xmlns="http://www.w3.org/2000/svg">
<path d="M19.5875 25.9054C14.4912 34.0935 28.7249 40.1837 20.6935 43.2509C12.6632 46.3191 8.79927 39.5234 4.76633 30.863C0.731084 22.2026 3.97192 12.694 12.0033 9.62786C20.0336 6.55863 26.329 15.066 19.5875 25.9054ZM16.042 3.53354C16.0593 1.141 17.8516 -0.016257 20.0497 0.000172467C22.2466 0.0145483 24.0194 1.19337 23.9998 3.58591C23.9734 7.00941 22.1788 8.68009 19.9818 8.66674C17.7849 8.65339 16.0133 6.95807 16.042 3.53354ZM9.3534 4.69593C9.07289 2.9924 10.203 1.99225 11.7676 1.78175C13.33 1.56919 14.7349 2.22945 15.0142 3.93196C15.4143 6.36763 14.3451 7.73539 12.7816 7.94589C11.2181 8.15537 9.75347 7.13058 9.3534 4.69593ZM4.43638 7.65016C3.98457 6.1982 4.84795 5.21346 6.18384 4.8746C7.51972 4.53574 8.81997 4.96907 9.27178 6.42308C9.91672 8.50039 9.15106 9.79627 7.81518 10.1351C6.4793 10.474 5.08018 9.72747 4.43638 7.65016ZM1.78071 11.7473C1.26682 10.6763 1.8129 9.84042 2.79699 9.4533C3.78108 9.06618 4.82956 9.27463 5.3446 10.3456C6.07807 11.8777 5.64465 12.9425 4.66056 13.3317C3.67762 13.7188 2.51878 13.2793 1.78071 11.7473ZM0.157413 15.3094C-0.25301 14.453 0.181555 13.7856 0.970209 13.4765C1.75656 13.1653 2.5935 13.3317 3.00623 14.1881C3.59369 15.4111 3.24535 16.2633 2.45785 16.5745C1.67264 16.8835 0.746029 16.5324 0.157413 15.3094Z" fill="#717867"/>
</svg>
