<svg width="34" height="21" viewBox="0 0 34 21" fill="none" xmlns="http://www.w3.org/2000/svg">
<path d="M21.4388 2.21875H11.6116V18.1774H21.4388V2.21875Z" fill="#FF5F00"/>
<path d="M12.6355 10.1548C12.6355 7.05334 14.0515 4.09281 16.5154 2.17552C12.0974 -1.29252 5.66861 -0.531246 2.18517 3.86725C-1.29826 8.26575 -0.533603 14.6661 3.88441 18.1342C5.69693 19.5439 7.90593 20.3052 10.1999 20.3052C12.4939 20.3052 14.7029 19.5439 16.4871 18.1342C14.0515 16.2169 12.6355 13.2563 12.6355 10.1548Z" fill="#EB001B"/>
<path d="M33.0329 10.144C33.0329 15.7549 28.4449 20.2944 22.8375 20.2944C20.5718 20.2944 18.3628 19.5331 16.5503 18.1234C20.9683 14.6271 21.733 8.22674 18.2212 3.82824C17.7398 3.20794 17.1733 2.64403 16.5503 2.16471C20.9966 -1.30333 27.3971 -0.513861 30.8522 3.88464C32.2682 5.68915 33.0329 7.8884 33.0329 10.144Z" fill="#F79E1B"/>
</svg>
