<svg width="32" height="32" viewBox="0 0 32 32" fill="none" xmlns="http://www.w3.org/2000/svg">
<path d="M11.1429 2.28571C10.3093 2.28571 9.50992 2.61683 8.92052 3.20623C8.33112 3.79563 8 4.59503 8 5.42856V26.5714C8 27.405 8.33112 28.2044 8.92052 28.7938C9.50992 29.3832 10.3093 29.7143 11.1429 29.7143H20.8571C21.6907 29.7143 22.4901 29.3832 23.0795 28.7938C23.6689 28.2044 24 27.405 24 26.5714V5.42856C24 4.59503 23.6689 3.79563 23.0795 3.20623C22.4901 2.61683 21.6907 2.28571 20.8571 2.28571H11.1429ZM9.71429 5.42856C9.71429 4.63999 10.3543 3.99999 11.1429 3.99999H20.8571C21.6457 3.99999 22.2857 4.63999 22.2857 5.42856V26.5714C22.2857 27.36 21.6457 28 20.8571 28H11.1429C10.3543 28 9.71429 27.36 9.71429 26.5714V5.42856ZM14 24C13.7727 24 13.5547 24.0903 13.3939 24.251C13.2332 24.4118 13.1429 24.6298 13.1429 24.8571C13.1429 25.0845 13.2332 25.3025 13.3939 25.4632C13.5547 25.624 13.7727 25.7143 14 25.7143H18C18.2273 25.7143 18.4453 25.624 18.6061 25.4632C18.7668 25.3025 18.8571 25.0845 18.8571 24.8571C18.8571 24.6298 18.7668 24.4118 18.6061 24.251C18.4453 24.0903 18.2273 24 18 24H14Z" fill="#717867"/>
</svg>
