<svg width="32" height="32" viewBox="0 0 32 32" fill="none" xmlns="http://www.w3.org/2000/svg">
<path d="M11.1429 2.28564C10.3093 2.28564 9.50992 2.61677 8.92052 3.20617C8.33112 3.79557 8 4.59496 8 5.4285V26.5714C8 27.4049 8.33112 28.2043 8.92052 28.7937C9.50992 29.3831 10.3093 29.7142 11.1429 29.7142H20.8571C21.6907 29.7142 22.4901 29.3831 23.0795 28.7937C23.6689 28.2043 24 27.4049 24 26.5714V5.4285C24 4.59496 23.6689 3.79557 23.0795 3.20617C22.4901 2.61677 21.6907 2.28564 20.8571 2.28564H11.1429ZM9.71429 5.4285C9.71429 4.63993 10.3543 3.99993 11.1429 3.99993H20.8571C21.6457 3.99993 22.2857 4.63993 22.2857 5.4285V26.5714C22.2857 27.3599 21.6457 27.9999 20.8571 27.9999H11.1429C10.3543 27.9999 9.71429 27.3599 9.71429 26.5714V5.4285ZM14 23.9999C13.7727 23.9999 13.5547 24.0902 13.3939 24.251C13.2332 24.4117 13.1429 24.6297 13.1429 24.8571C13.1429 25.0844 13.2332 25.3024 13.3939 25.4632C13.5547 25.6239 13.7727 25.7142 14 25.7142H18C18.2273 25.7142 18.4453 25.6239 18.6061 25.4632C18.7668 25.3024 18.8571 25.0844 18.8571 24.8571C18.8571 24.6297 18.7668 24.4117 18.6061 24.251C18.4453 24.0902 18.2273 23.9999 18 23.9999H14Z" fill="white"/>
</svg>
