<svg width="32" height="32" viewBox="0 0 32 32" fill="none" xmlns="http://www.w3.org/2000/svg">
<path d="M29.9362 2.89487C29.7124 2.7018 29.4401 2.57347 29.1486 2.52369C28.8572 2.47391 28.5578 2.50457 28.2825 2.61237L2.94999 12.5261C2.4902 12.7052 2.101 13.0287 1.84096 13.4481C1.58092 13.8674 1.46411 14.3599 1.50809 14.8514C1.55208 15.3428 1.75449 15.8067 2.08486 16.1732C2.41524 16.5397 2.85571 16.789 3.33999 16.8836L9.49999 18.0924V24.9999C9.49998 25.4982 9.64892 25.9853 9.9277 26.3984C10.2065 26.8115 10.6024 27.1318 11.0645 27.3183C11.5267 27.5048 12.0341 27.5489 12.5215 27.4449C13.0089 27.341 13.4541 27.0937 13.8 26.7349L16.6337 23.7961L21.2937 27.8749C21.6188 28.1607 22.0125 28.3573 22.4364 28.4453C22.8602 28.5334 23.2997 28.5098 23.7117 28.377C24.1237 28.2442 24.4942 28.0067 24.7868 27.6877C25.0795 27.3688 25.2843 26.9793 25.3812 26.5574L30.4587 4.48862C30.5248 4.20056 30.5111 3.89995 30.419 3.61912C30.3269 3.3383 30.16 3.0879 29.9362 2.89487ZM18.4262 9.68987L10.6525 15.2611L6.34874 14.4174L18.4262 9.68987ZM12.5 23.7574V20.1686L14.375 21.8124L12.5 23.7574ZM22.645 25.0724L13.41 16.9761L26.6987 7.45362L22.645 25.0724Z" fill="white"/>
</svg>
