<svg width="30" height="27" viewBox="0 0 30 27" fill="none" xmlns="http://www.w3.org/2000/svg">
<path d="M28.9363 0.894989C28.7124 0.701925 28.4401 0.573593 28.1487 0.523814C27.8573 0.474034 27.5578 0.504693 27.2825 0.612489L1.95001 10.5262C1.49022 10.7053 1.10102 11.0289 0.840978 11.4482C0.580937 11.8676 0.464122 12.36 0.508108 12.8515C0.552095 13.343 0.754505 13.8068 1.08488 14.1734C1.41526 14.5399 1.85572 14.7892 2.34001 14.8837L8.50001 16.0925V23C8.49999 23.4984 8.64894 23.9854 8.92772 24.3985C9.2065 24.8116 9.60239 25.132 10.0646 25.3184C10.5267 25.5049 11.0341 25.549 11.5215 25.4451C12.0089 25.3411 12.4541 25.0938 12.8 24.735L15.6338 21.7962L20.2938 25.875C20.6188 26.1609 21.0125 26.3574 21.4364 26.4455C21.8602 26.5335 22.2997 26.5099 22.7117 26.3771C23.1237 26.2443 23.4942 26.0068 23.7868 25.6879C24.0795 25.3689 24.2843 24.9794 24.3813 24.5575L29.4588 2.48874C29.5248 2.20069 29.5111 1.90007 29.419 1.61924C29.327 1.33842 29.16 1.08802 28.9363 0.894989ZM17.4263 7.68999L9.65251 13.2612L5.34876 12.4175L17.4263 7.68999ZM11.5 21.7575V18.1687L13.375 19.8125L11.5 21.7575ZM21.645 23.0725L12.41 14.9762L25.6988 5.45374L21.645 23.0725Z" fill="white"/>
</svg>
