<svg width="32" height="32" viewBox="0 0 32 32" fill="none" xmlns="http://www.w3.org/2000/svg">
<path d="M29.9362 2.89499C29.7124 2.70193 29.4401 2.57359 29.1486 2.52381C28.8572 2.47403 28.5578 2.50469 28.2825 2.61249L2.94999 12.5262C2.4902 12.7053 2.101 13.0289 1.84096 13.4482C1.58092 13.8676 1.46411 14.36 1.50809 14.8515C1.55208 15.343 1.75449 15.8068 2.08486 16.1734C2.41524 16.5399 2.85571 16.7892 3.33999 16.8837L9.49999 18.0925V25C9.49998 25.4984 9.64892 25.9854 9.9277 26.3985C10.2065 26.8116 10.6024 27.132 11.0645 27.3184C11.5267 27.5049 12.0341 27.549 12.5215 27.4451C13.0089 27.3411 13.4541 27.0938 13.8 26.735L16.6337 23.7962L21.2937 27.875C21.6188 28.1609 22.0125 28.3574 22.4364 28.4455C22.8602 28.5335 23.2997 28.5099 23.7117 28.3771C24.1237 28.2443 24.4942 28.0068 24.7868 27.6879C25.0795 27.3689 25.2843 26.9794 25.3812 26.5575L30.4587 4.48874C30.5248 4.20069 30.5111 3.90007 30.419 3.61924C30.3269 3.33842 30.16 3.08802 29.9362 2.89499ZM18.4262 9.68999L10.6525 15.2612L6.34874 14.4175L18.4262 9.68999ZM12.5 23.7575V20.1687L14.375 21.8125L12.5 23.7575ZM22.645 25.0725L13.41 16.9762L26.6987 7.45374L22.645 25.0725Z" fill="#717867"/>
</svg>
