<svg width="36" height="30" viewBox="0 0 36 30" fill="none" xmlns="http://www.w3.org/2000/svg">
<path d="M35.9437 0.703125H0.776367V29.2088H35.9437V0.703125Z" fill="white"/>
<path d="M35.3452 24.6094H1.34863V28.5004H35.3452V24.6094Z" fill="#F7B600"/>
<path d="M35.3452 1.51562H1.34863V5.4066H35.3452V1.51562Z" fill="#1A1F71"/>
<path d="M14.9609 9.68174L11.4485 20.3678H9.15117L7.42815 11.8246C7.3177 11.2889 7.22934 11.1197 6.92008 10.8941C6.23529 10.4712 5.52841 10.1611 4.77734 9.99189L4.82152 9.68174H8.51056C9.01863 9.68174 9.43834 10.1611 9.50461 10.7814L10.4103 16.9562L12.6635 9.68174H14.9609ZM23.9515 16.8716C23.9515 14.052 20.9031 13.8829 20.9252 12.6423C20.9252 12.2475 21.2123 11.8528 21.853 11.74C22.5819 11.6554 23.333 11.8246 23.9957 12.2193L24.3712 9.9637C23.7306 9.65355 23.0237 9.48438 22.3389 9.48438C20.1962 9.48438 18.6941 10.9505 18.672 13.0088C18.6499 14.5596 19.7544 15.4054 20.5717 15.9129C21.3891 16.4205 21.6983 16.787 21.6983 17.2381C21.6983 17.943 21.0135 18.2814 20.395 18.2814C19.6219 18.3096 18.8487 18.084 18.1639 17.6047L17.7663 19.9449C18.5394 20.3396 19.3568 20.537 20.1741 20.5088C22.4494 20.537 23.9294 19.099 23.9515 16.8716ZM29.6066 20.3678H31.6168L29.8716 9.68174H28.0161C27.6185 9.68174 27.2429 9.99189 27.0883 10.4712L23.819 20.3678H26.0942L26.536 18.7607H29.3194L29.6066 20.3678ZM27.1767 16.5896L28.3253 12.5859L28.988 16.5896H27.1767ZM18.0535 9.68174L16.2642 20.3678H14.0993L15.8886 9.68174H18.0535Z" fill="#1A1F71"/>
</svg>
