<svg width="32" height="32" viewBox="0 0 32 32" fill="none" xmlns="http://www.w3.org/2000/svg">
<path d="M9.082 5C8.00068 5.00421 6.96486 5.43563 6.20025 6.20025C5.43563 6.96486 5.00421 8.00068 5 9.082V22.918C5.00421 23.9993 5.43563 25.0351 6.20025 25.7998C6.96486 26.5644 8.00068 26.9958 9.082 27H22.918C23.9993 26.9958 25.0351 26.5644 25.7998 25.7998C26.5644 25.0351 26.9958 23.9993 27 22.918V9.082C26.9958 8.00068 26.5644 6.96486 25.7998 6.20025C25.0351 5.43563 23.9993 5.00421 22.918 5H9.082ZM9.082 7H22.918C23.1919 6.99841 23.4633 7.05117 23.7166 7.15524C23.9699 7.25931 24.2001 7.4126 24.3937 7.60625C24.5874 7.7999 24.7407 8.03005 24.8448 8.28337C24.9488 8.53669 25.0016 8.80814 25 9.082V22.918C25.0016 23.1919 24.9488 23.4633 24.8448 23.7166C24.7407 23.9699 24.5874 24.2001 24.3937 24.3937C24.2001 24.5874 23.9699 24.7407 23.7166 24.8448C23.4633 24.9488 23.1919 25.0016 22.918 25H9.082C8.80811 25.0017 8.53659 24.9491 8.28321 24.845C8.02984 24.741 7.79963 24.5877 7.60596 24.394C7.41228 24.2004 7.25899 23.9702 7.15497 23.7168C7.05095 23.4634 6.99827 23.1919 7 22.918V9.082C6.99841 8.80814 7.05117 8.53669 7.15524 8.28337C7.25931 8.03005 7.4126 7.7999 7.60625 7.60625C7.7999 7.4126 8.03005 7.25931 8.28337 7.15524C8.53669 7.05117 8.80814 6.99841 9.082 7ZM15.719 12.23C14.984 12.223 14.359 12.23 14.008 12.402C13.773 12.516 13.594 12.773 13.703 12.785C13.84 12.805 14.148 12.871 14.313 13.094C14.523 13.379 14.516 14.024 14.516 14.024C14.516 14.024 14.633 15.797 14.23 16.02C13.953 16.172 13.574 15.863 12.754 14.453C12.336 13.727 12.02 12.926 12.02 12.926C12.02 12.926 11.96 12.777 11.852 12.699C11.719 12.602 11.535 12.57 11.535 12.57L9.578 12.582C9.578 12.582 9.285 12.594 9.18 12.719C9.082 12.836 9.172 13.066 9.172 13.066C9.172 13.066 10.703 16.648 12.437 18.453C14.027 20.11 15.832 20 15.832 20H16.652C16.652 20 16.898 19.973 17.023 19.84C17.141 19.715 17.137 19.48 17.137 19.48C17.137 19.48 17.121 18.383 17.629 18.219C18.133 18.062 18.773 19.281 19.457 19.75C19.977 20.105 20.371 20.027 20.371 20.027L22.2 20C22.2 20 23.153 19.941 22.7 19.187C22.665 19.129 22.438 18.633 21.345 17.617C20.196 16.555 20.349 16.727 21.731 14.887C22.571 13.766 22.907 13.082 22.801 12.785C22.701 12.508 22.083 12.582 22.083 12.582L20.024 12.594C20.024 12.594 19.872 12.574 19.759 12.641C19.6813 12.6987 19.6194 12.7751 19.579 12.863C19.579 12.863 19.251 13.73 18.817 14.469C17.903 16.023 17.532 16.109 17.384 16.012C17.036 15.785 17.122 15.105 17.122 14.625C17.122 13.113 17.352 12.488 16.677 12.325C16.454 12.27 16.29 12.235 15.72 12.23H15.719Z" fill="black"/>
</svg>
