<svg width="32" height="32" viewBox="0 0 32 32" fill="none" xmlns="http://www.w3.org/2000/svg">
<path d="M21.4456 18.2255C21.0205 17.7655 20.5431 17.3569 20.023 17.008C22.1201 15.3868 23.5898 13.0884 24.1816 10.5047C24.226 10.3178 24.233 10.1238 24.2021 9.93416C24.1711 9.74448 24.1029 9.56282 24.0013 9.39966C23.8998 9.2365 23.7669 9.09509 23.6104 8.98359C23.4539 8.87209 23.2768 8.79271 23.0894 8.75004C22.902 8.70738 22.708 8.70227 22.5187 8.73501C22.3293 8.76775 22.1483 8.8377 21.9861 8.94081C21.8239 9.04391 21.6838 9.17813 21.5738 9.33572C21.4638 9.49331 21.3861 9.67113 21.3452 9.85891C21.0699 11.0677 20.5343 12.2019 19.7756 13.1824C19.0169 14.1629 18.0535 14.9661 16.9525 15.536V10.1847C16.9433 10.0779 16.9218 9.97246 16.8885 9.87055C16.8786 9.78634 16.8616 9.70313 16.8376 9.62182C16.7756 9.48896 16.6937 9.36633 16.5947 9.25818C16.5685 9.22909 16.5554 9.18836 16.5278 9.15927C16.4212 9.06094 16.3006 8.97907 16.1699 8.91636C16.1321 8.896 16.1045 8.86255 16.0652 8.84655C15.954 8.8093 15.8388 8.78538 15.7219 8.77527C15.6496 8.75421 15.5757 8.73913 15.5008 8.73018L14.5496 8.72727H14.5452C14.2044 8.72486 13.8737 8.84278 13.6114 9.06026C13.349 9.27774 13.1718 9.58082 13.111 9.91613C13.0501 10.2514 13.1095 10.5975 13.2788 10.8933C13.448 11.189 13.7162 11.4156 14.0361 11.5331V18.6458C11.7311 16.2533 10.2047 13.2188 9.65794 9.94182C9.59351 9.56145 9.38063 9.22225 9.06611 8.99885C8.7516 8.77544 8.36122 8.68612 7.98085 8.75055C7.60048 8.81497 7.26128 9.02786 7.03787 9.34237C6.81447 9.65689 6.72515 10.0473 6.78957 10.4276C7.63952 15.4934 10.4643 20.0152 14.6441 23.0007C14.7038 23.0362 14.7661 23.0673 14.8303 23.0938C14.8809 23.1233 14.9334 23.1496 14.9874 23.1724C15.1495 23.2372 15.3219 23.2722 15.4965 23.2756C15.7106 23.273 15.9213 23.2223 16.1132 23.1273C16.1278 23.12 16.1438 23.1244 16.1583 23.1171C16.2869 23.0498 16.4046 22.9635 16.5074 22.8611C16.5292 22.8407 16.5423 22.8175 16.5627 22.7956C16.6565 22.6926 16.7349 22.5765 16.7954 22.4509C16.8154 22.4096 16.8334 22.3674 16.8492 22.3244C16.9131 22.1641 16.9476 21.9936 16.951 21.8211V18.7287C17.853 18.9931 18.6657 19.4985 19.3016 20.1905L21.6972 22.8044C21.958 23.0887 22.321 23.2578 22.7065 23.2744C23.0919 23.291 23.4682 23.1539 23.7525 22.8931C24.0368 22.6323 24.2059 22.2693 24.2225 21.8838C24.2391 21.4984 24.102 21.1221 23.8412 20.8378L21.4456 18.2255ZM20.4696 0H11.5445C2.58885 0 -0.000244141 2.58618 -0.000244141 11.5302V20.4553C-0.000244141 29.4109 2.58594 32 11.5299 32H20.455C29.4107 32 31.9998 29.4138 31.9998 20.4698V11.5447C31.9998 2.58909 29.4136 0 20.4696 0ZM29.0907 20.4698C29.0907 27.8007 27.799 29.0909 20.4536 29.0909H11.5314C4.19903 29.0909 2.90885 27.7993 2.90885 20.4538V11.5316C2.90885 4.19927 4.20048 2.90909 11.5459 2.90909H20.4696C27.8005 2.90909 29.0907 4.20073 29.0907 11.5462V20.4698Z" fill="#717867"/>
</svg>
