<svg width="32" height="32" viewBox="0 0 32 32" fill="none" xmlns="http://www.w3.org/2000/svg">
<path d="M1.27226 7.06619C1.00212 9.07544 1 11.7113 1 15.36V16.64C1 20.2887 1.00212 22.9246 1.27226 24.9338C1.53853 26.9143 2.04858 28.1355 2.95652 29.0435C3.86447 29.9514 5.08571 30.4615 7.06619 30.7277C9.07544 30.9979 11.7113 31 15.36 31H16.64C20.2887 31 22.9246 30.9979 24.9338 30.7277C26.9143 30.4615 28.1355 29.9514 29.0435 29.0435C29.0435 29.0435 29.0435 29.0435 29.0435 29.0435M1.27226 7.06619L29.7506 2.24942C32 4.49884 32 8.1192 32 15.36V16.64C32 23.8808 32 27.5011 29.7506 29.7506L29.0435 29.0435M1.27226 7.06619C1.53853 5.08571 2.04859 3.86447 2.95653 2.95653C3.86447 2.04859 5.08571 1.53853 7.06619 1.27226C9.07544 1.00212 11.7113 1 15.36 1H16.64C20.2887 1 22.9246 1.00212 24.9338 1.27226C26.9143 1.53853 28.1355 2.04858 29.0435 2.95653C29.9514 3.86447 30.4615 5.08571 30.7277 7.06619C30.9979 9.07544 31 11.7113 31 15.36V16.64C31 20.2887 30.9979 22.9246 30.7277 24.9338C30.4615 26.9143 29.9514 28.1355 29.0435 29.0435M1.27226 7.06619L29.0435 29.0435" stroke="#717867" stroke-width="2"/>
<path d="M16.6266 23.32C9.33327 23.32 5.17333 18.32 5 10H8.65333C8.77333 16.1067 11.4666 18.6933 13.5999 19.2267V10H17.0401V15.2667C19.1467 15.04 21.3598 12.64 22.1065 10H25.5465C24.9732 13.2533 22.5732 15.6533 20.8665 16.64C22.5732 17.44 25.3067 19.5333 26.3467 23.32H22.5599C21.7465 20.7867 19.7201 18.8267 17.0401 18.56V23.32H16.6266Z" fill="#717867"/>
</svg>
