<svg width="32" height="32" viewBox="0 0 32 32" fill="none" xmlns="http://www.w3.org/2000/svg">
<path d="M21.4456 18.2255C21.0206 17.7655 20.5431 17.3569 20.0231 17.008C22.1201 15.3868 23.5899 13.0884 24.1816 10.5047C24.2261 10.3178 24.233 10.1238 24.2021 9.93416C24.1712 9.74448 24.103 9.56282 24.0014 9.39966C23.8999 9.2365 23.767 9.09509 23.6104 8.98359C23.4539 8.87209 23.2768 8.79271 23.0895 8.75004C22.9021 8.70738 22.7081 8.70227 22.5187 8.73501C22.3293 8.76775 22.1483 8.8377 21.9862 8.94081C21.824 9.04391 21.6838 9.17813 21.5738 9.33572C21.4638 9.49331 21.3862 9.67113 21.3453 9.85891C21.07 11.0677 20.5343 12.2019 19.7757 13.1824C19.017 14.1629 18.0535 14.9661 16.9525 15.536V10.1847C16.9434 10.0779 16.9219 9.97246 16.8885 9.87055C16.8787 9.78634 16.8617 9.70313 16.8376 9.62182C16.7756 9.48896 16.6937 9.36633 16.5947 9.25818C16.5685 9.22909 16.5555 9.18836 16.5278 9.15927C16.4213 9.06094 16.3007 8.97907 16.17 8.91636C16.1322 8.896 16.1045 8.86255 16.0653 8.84655C15.9541 8.8093 15.8388 8.78538 15.722 8.77527C15.6497 8.75421 15.5757 8.73913 15.5009 8.73018L14.5496 8.72727H14.5453C14.2045 8.72486 13.8738 8.84278 13.6114 9.06026C13.3491 9.27774 13.1719 9.58082 13.111 9.91613C13.0502 10.2514 13.1096 10.5975 13.2788 10.8933C13.4481 11.189 13.7163 11.4156 14.0362 11.5331V18.6458C11.7312 16.2533 10.2048 13.2188 9.658 9.94182C9.59358 9.56145 9.38069 9.22225 9.06617 8.99885C8.75166 8.77544 8.36128 8.68612 7.98091 8.75055C7.60054 8.81497 7.26134 9.02786 7.03794 9.34237C6.81453 9.65689 6.72521 10.0473 6.78964 10.4276C7.63958 15.4934 10.4644 20.0152 14.6442 23.0007C14.7039 23.0362 14.7661 23.0673 14.8304 23.0938C14.881 23.1233 14.9335 23.1496 14.9875 23.1724C15.1495 23.2372 15.322 23.2722 15.4965 23.2756C15.7106 23.273 15.9214 23.2223 16.1133 23.1273C16.1278 23.12 16.1438 23.1244 16.1584 23.1171C16.2869 23.0498 16.4046 22.9635 16.5075 22.8611C16.5293 22.8407 16.5424 22.8175 16.5627 22.7956C16.6566 22.6926 16.735 22.5765 16.7955 22.4509C16.8155 22.4096 16.8334 22.3674 16.8493 22.3244C16.9131 22.1641 16.9476 21.9936 16.9511 21.8211V18.7287C17.853 18.9931 18.6657 19.4985 19.3016 20.1905L21.6973 22.8044C21.9581 23.0887 22.3211 23.2578 22.7065 23.2744C23.092 23.291 23.4682 23.1539 23.7525 22.8931C24.0369 22.6323 24.2059 22.2693 24.2226 21.8838C24.2392 21.4984 24.1021 21.1221 23.8413 20.8378L21.4456 18.2255ZM20.4696 0H11.5445C2.58891 0 -0.000183105 2.58618 -0.000183105 11.5302V20.4553C-0.000183105 29.4109 2.586 32 11.53 32H20.4551C29.4107 32 31.9998 29.4138 31.9998 20.4698V11.5447C31.9998 2.58909 29.4136 0 20.4696 0ZM29.0907 20.4698C29.0907 27.8007 27.7991 29.0909 20.4536 29.0909H11.5315C4.19909 29.0909 2.90891 27.7993 2.90891 20.4538V11.5316C2.90891 4.19927 4.20054 2.90909 11.546 2.90909H20.4696C27.8005 2.90909 29.0907 4.20073 29.0907 11.5462V20.4698Z" fill="white"/>
</svg>
