<svg width="32" height="32" viewBox="0 0 32 32" fill="none" xmlns="http://www.w3.org/2000/svg">
<path d="M21.4458 18.2255C21.0208 17.7655 20.5433 17.3569 20.0233 17.008C22.1203 15.3868 23.59 13.0884 24.1818 10.5047C24.2263 10.3178 24.2332 10.1238 24.2023 9.93416C24.1714 9.74448 24.1031 9.56282 24.0016 9.39966C23.9 9.2365 23.7672 9.09509 23.6106 8.98359C23.4541 8.87209 23.277 8.79271 23.0896 8.75004C22.9023 8.70738 22.7083 8.70227 22.5189 8.73501C22.3295 8.76775 22.1485 8.8377 21.9863 8.94081C21.8242 9.04391 21.684 9.17813 21.574 9.33572C21.464 9.49331 21.3863 9.67113 21.3455 9.85891C21.0702 11.0677 20.5345 12.2019 19.7758 13.1824C19.0172 14.1629 18.0537 14.9661 16.9527 15.536V10.1847C16.9436 10.0779 16.9221 9.97246 16.8887 9.87055C16.8789 9.78634 16.8618 9.70313 16.8378 9.62182C16.7758 9.48896 16.6939 9.36633 16.5949 9.25818C16.5687 9.22909 16.5556 9.18836 16.528 9.15927C16.4215 9.06094 16.3009 8.97907 16.1702 8.91636C16.1324 8.896 16.1047 8.86255 16.0655 8.84655C15.9543 8.8093 15.839 8.78538 15.7222 8.77527C15.6498 8.75421 15.5759 8.73913 15.5011 8.73018L14.5498 8.72727H14.5455C14.2047 8.72486 13.874 8.84278 13.6116 9.06026C13.3492 9.27774 13.172 9.58082 13.1112 9.91613C13.0504 10.2514 13.1098 10.5975 13.279 10.8933C13.4483 11.189 13.7165 11.4156 14.0364 11.5331V18.6458C11.7314 16.2533 10.205 13.2188 9.65818 9.94182C9.59376 9.56145 9.38087 9.22225 9.06636 8.99885C8.75184 8.77544 8.36146 8.68612 7.98109 8.75055C7.60072 8.81497 7.26153 9.02786 7.03812 9.34237C6.81471 9.65689 6.7254 10.0473 6.78982 10.4276C7.63976 15.4934 10.4645 20.0152 14.6444 23.0007C14.7041 23.0362 14.7663 23.0673 14.8305 23.0938C14.8812 23.1233 14.9336 23.1496 14.9876 23.1724C15.1497 23.2372 15.3222 23.2722 15.4967 23.2756C15.7108 23.273 15.9216 23.2223 16.1135 23.1273C16.128 23.12 16.144 23.1244 16.1585 23.1171C16.2871 23.0498 16.4048 22.9635 16.5076 22.8611C16.5295 22.8407 16.5425 22.8175 16.5629 22.7956C16.6568 22.6926 16.7352 22.5765 16.7956 22.4509C16.8157 22.4096 16.8336 22.3674 16.8495 22.3244C16.9133 22.1641 16.9478 21.9936 16.9513 21.8211V18.7287C17.8532 18.9931 18.6659 19.4985 19.3018 20.1905L21.6975 22.8044C21.9582 23.0887 22.3213 23.2578 22.7067 23.2744C23.0922 23.291 23.4684 23.1539 23.7527 22.8931C24.037 22.6323 24.2061 22.2693 24.2228 21.8838C24.2394 21.4984 24.1022 21.1221 23.8415 20.8378L21.4458 18.2255ZM20.4698 0H11.5447C2.58909 0 0 2.58618 0 11.5302V20.4553C0 29.4109 2.58618 32 11.5302 32H20.4553C29.4109 32 32 29.4138 32 20.4698V11.5447C32 2.58909 29.4138 0 20.4698 0ZM29.0909 20.4698C29.0909 27.8007 27.7993 29.0909 20.4538 29.0909H11.5316C4.19927 29.0909 2.90909 27.7993 2.90909 20.4538V11.5316C2.90909 4.19927 4.20073 2.90909 11.5462 2.90909H20.4698C27.8007 2.90909 29.0909 4.20073 29.0909 11.5462V20.4698Z" fill="white"/>
</svg>
