<svg width="32" height="32" viewBox="0 0 32 32" fill="none" xmlns="http://www.w3.org/2000/svg">
<g clip-path="url(#clip0_37_419)">
<path d="M23.2962 19.1761C22.9002 18.9774 20.9522 18.0201 20.5895 17.8867C20.2255 17.7547 19.9615 17.6894 19.6962 18.0867C19.4335 18.4827 18.6735 19.3747 18.4428 19.6387C18.2122 19.9041 17.9802 19.9361 17.5842 19.7387C17.1882 19.5387 15.9108 19.1214 14.3975 17.7721C13.2202 16.7214 12.4242 15.4241 12.1935 15.0267C11.9628 14.6307 12.1695 14.4161 12.3668 14.2187C12.5455 14.0414 12.7642 13.7561 12.9615 13.5254C13.1602 13.2934 13.2255 13.1281 13.3588 12.8627C13.4908 12.5987 13.4255 12.3681 13.3255 12.1694C13.2255 11.9707 12.4335 10.0201 12.1042 9.22672C11.7815 8.45472 11.4548 8.56005 11.2122 8.54672C10.959 8.53664 10.7056 8.53219 10.4522 8.53339C10.1882 8.53339 9.75884 8.63205 9.39617 9.02939C9.03351 9.42539 8.00951 10.3841 8.00951 12.3347C8.00951 14.2841 9.42951 16.1681 9.62684 16.4334C9.82551 16.6974 12.4215 20.7001 16.3962 22.4161C17.3415 22.8241 18.0788 23.0681 18.6548 23.2494C19.6042 23.5521 20.4682 23.5094 21.1495 23.4067C21.9108 23.2934 23.4935 22.4481 23.8242 21.5227C24.1548 20.5974 24.1548 19.8041 24.0548 19.6387C23.9562 19.4734 23.6935 19.3747 23.2962 19.1761ZM16.0668 29.0467H16.0615C13.7012 29.0469 11.3843 28.4123 9.35351 27.2094L8.87217 26.9241L3.88417 28.2334L5.21484 23.3694L4.90151 22.8707C3.58209 20.7697 2.88409 18.3383 2.88817 15.8574C2.88951 8.59072 8.80284 2.67872 16.0722 2.67872C19.5922 2.67872 22.9015 4.05205 25.3895 6.54272C26.6171 7.76488 27.5901 9.21836 28.2522 10.819C28.9143 12.4197 29.2524 14.1358 29.2468 15.8681C29.2428 23.1347 23.3308 29.0467 16.0668 29.0467ZM27.2842 4.65072C25.8151 3.17195 24.0671 1.99944 22.1416 1.20112C20.2161 0.402806 18.1513 -0.005435 16.0668 5.46367e-05C7.32684 5.46367e-05 0.213505 7.11339 0.209505 15.8561C0.209505 18.6507 0.938838 21.3787 2.32684 23.7827L0.0761719 32.0001L8.48284 29.7947C10.8076 31.0613 13.4128 31.7251 16.0602 31.7254H16.0668C24.8055 31.7254 31.9202 24.6121 31.9242 15.8681C31.9306 13.7844 31.5239 11.7202 30.7274 9.79477C29.931 7.86934 28.7607 6.12095 27.2842 4.65072Z" fill="white"/>
</g>
<defs>
<clipPath id="clip0_37_419">
<rect width="32" height="32" fill="white"/>
</clipPath>
</defs>
</svg>
