<svg width="32" height="32" viewBox="0 0 32 32" fill="none" xmlns="http://www.w3.org/2000/svg">
<g clip-path="url(#clip0_17_28)">
<path d="M23.2962 19.176C22.9002 18.9773 20.9522 18.02 20.5895 17.8867C20.2255 17.7547 19.9615 17.6893 19.6962 18.0867C19.4335 18.4827 18.6735 19.3747 18.4428 19.6387C18.2122 19.904 17.9802 19.936 17.5842 19.7387C17.1882 19.5387 15.9108 19.1213 14.3975 17.772C13.2202 16.7213 12.4242 15.424 12.1935 15.0267C11.9628 14.6307 12.1695 14.416 12.3668 14.2187C12.5455 14.0413 12.7642 13.756 12.9615 13.5253C13.1602 13.2933 13.2255 13.128 13.3588 12.8627C13.4908 12.5987 13.4255 12.368 13.3255 12.1693C13.2255 11.9707 12.4335 10.02 12.1042 9.22666C11.7815 8.45466 11.4548 8.55999 11.2122 8.54666C10.959 8.53657 10.7056 8.53213 10.4522 8.53333C10.1882 8.53333 9.75884 8.63199 9.39617 9.02933C9.03351 9.42533 8.00951 10.384 8.00951 12.3347C8.00951 14.284 9.42951 16.168 9.62684 16.4333C9.82551 16.6973 12.4215 20.7 16.3962 22.416C17.3415 22.824 18.0788 23.068 18.6548 23.2493C19.6042 23.552 20.4682 23.5093 21.1495 23.4067C21.9108 23.2933 23.4935 22.448 23.8242 21.5227C24.1548 20.5973 24.1548 19.804 24.0548 19.6387C23.9562 19.4733 23.6935 19.3747 23.2962 19.176ZM16.0668 29.0467H16.0615C13.7012 29.0469 11.3843 28.4122 9.35351 27.2093L8.87217 26.924L3.88417 28.2333L5.21484 23.3693L4.90151 22.8707C3.58209 20.7697 2.88409 18.3382 2.88817 15.8573C2.88951 8.59066 8.80284 2.67866 16.0722 2.67866C19.5922 2.67866 22.9015 4.05199 25.3895 6.54266C26.6171 7.76482 27.5901 9.2183 28.2522 10.819C28.9143 12.4197 29.2524 14.1358 29.2468 15.868C29.2428 23.1347 23.3308 29.0467 16.0668 29.0467ZM27.2842 4.65066C25.8151 3.17189 24.0671 1.99938 22.1416 1.20106C20.2161 0.402745 18.1513 -0.00549603 16.0668 -6.39842e-06C7.32684 -6.39842e-06 0.213505 7.11333 0.209505 15.856C0.209505 18.6507 0.938838 21.3787 2.32684 23.7827L0.0761719 32L8.48284 29.7947C10.8076 31.0612 13.4128 31.725 16.0602 31.7253H16.0668C24.8055 31.7253 31.9202 24.612 31.9242 15.868C31.9306 13.7844 31.5239 11.7201 30.7274 9.7947C29.931 7.86928 28.7607 6.12089 27.2842 4.65066Z" fill="#717867"/>
</g>
<defs>
<clipPath id="clip0_17_28">
<rect width="32" height="32" fill="white"/>
</clipPath>
</defs>
</svg>
