<svg width="16" height="16" viewBox="0 0 16 16" fill="none" xmlns="http://www.w3.org/2000/svg">
<g clip-path="url(#clip0_1_16)">
<path d="M13.641 2.325C12.9066 1.58529 12.0327 0.998848 11.0698 0.599722C10.1069 0.200596 9.07432 -0.00325672 8.032 2.73067e-07C3.663 2.73067e-07 0.107 3.556 0.107 7.928C0.107 9.325 0.473 10.691 1.166 11.891L0.0410004 16L4.244 14.897C5.40596 15.5299 6.70784 15.862 8.031 15.863H8.034C12.403 15.863 15.962 12.307 15.962 7.935C15.9647 6.89304 15.7608 5.86088 15.3623 4.89815C14.9637 3.93542 14.3784 3.0612 13.64 2.326L13.641 2.325ZM8.034 14.525C6.85316 14.5252 5.694 14.2078 4.678 13.606L4.437 13.462L1.943 14.115L2.609 11.684L2.453 11.434C1.79076 10.3848 1.44079 9.16874 1.444 7.928C1.44612 6.18009 2.14162 4.50442 3.37786 3.26874C4.6141 2.03306 6.29009 1.33832 8.038 1.337C9.797 1.337 11.454 2.025 12.697 3.268C13.3104 3.87919 13.7966 4.60587 14.1275 5.40606C14.4585 6.20625 14.6275 7.06409 14.625 7.93C14.622 11.567 11.666 14.525 8.034 14.525ZM11.647 9.588C11.45 9.488 10.475 9.01 10.294 8.944C10.113 8.878 9.981 8.844 9.847 9.044C9.716 9.241 9.335 9.688 9.219 9.822C9.103 9.953 8.988 9.972 8.791 9.872C8.594 9.772 7.953 9.563 7.197 8.888C6.609 8.363 6.21 7.713 6.094 7.516C5.978 7.319 6.081 7.21 6.182 7.113C6.273 7.025 6.379 6.882 6.479 6.766C6.579 6.65 6.61 6.569 6.676 6.435C6.742 6.304 6.71 6.188 6.66 6.088C6.61 5.988 6.213 5.013 6.051 4.616C5.892 4.228 5.726 4.282 5.604 4.275C5.488 4.269 5.357 4.269 5.226 4.269C5.095 4.269 4.879 4.319 4.698 4.516C4.517 4.713 4.004 5.194 4.004 6.169C4.004 7.144 4.713 8.085 4.813 8.219C4.913 8.35 6.21 10.353 8.197 11.21C8.669 11.413 9.038 11.535 9.325 11.629C9.8 11.779 10.231 11.757 10.572 11.707C10.953 11.651 11.744 11.229 11.91 10.766C12.076 10.303 12.076 9.907 12.026 9.825C11.979 9.737 11.848 9.688 11.648 9.587L11.647 9.588Z" fill="black"/>
</g>
<defs>
<clipPath id="clip0_1_16">
<rect width="16" height="16" fill="white"/>
</clipPath>
</defs>
</svg>
