<?xml version="1.0" encoding="utf-8"?>
<!-- Generator: Adobe Illustrator 21.0.0, SVG Export Plug-In . SVG Version: 6.00 Build 0)  -->
<svg version="1.1" id="Layer_1" xmlns="http://www.w3.org/2000/svg" xmlns:xlink="http://www.w3.org/1999/xlink" x="0px" y="0px"
	 viewBox="0 0 64 64" style="enable-background:new 0 0 64 64;" xml:space="preserve">
<style type="text/css">
	.st0{fill:#455A64;stroke:#37474F;stroke-linecap:round;stroke-linejoin:round;stroke-miterlimit:10;}
	.st1{fill:#78909C;stroke:#37474F;stroke-linecap:round;stroke-linejoin:round;stroke-miterlimit:10;}
	.st2{fill:#ECEFF1;stroke:#37474F;stroke-linecap:round;stroke-linejoin:round;stroke-miterlimit:10;}
	.st3{fill:none;stroke:#FFFFFF;stroke-linecap:round;stroke-linejoin:round;stroke-miterlimit:10;}
	.st4{fill:#FFCA28;stroke:#37474F;stroke-linecap:round;stroke-linejoin:round;stroke-miterlimit:10;}
	.st5{fill:none;stroke:#37474F;stroke-linecap:round;stroke-linejoin:round;stroke-miterlimit:10;}
	.st6{fill:#B0BEC5;}
	.st7{fill:#37474F;}
	.st8{fill:#455A64;}
	.st9{fill:#9CCC65;stroke:#37474F;stroke-linecap:round;stroke-linejoin:round;stroke-miterlimit:10;}
	.st10{fill:none;stroke:#C5E1A5;stroke-linecap:round;stroke-linejoin:round;stroke-miterlimit:10;}
	.st11{fill:#26C6DA;stroke:#37474F;stroke-linecap:round;stroke-linejoin:round;stroke-miterlimit:10;}
	.st12{fill:#EF5350;stroke:#37474F;stroke-linecap:round;stroke-linejoin:round;stroke-miterlimit:10;}
	.st13{fill:#B0BEC5;stroke:#37474F;stroke-linecap:round;stroke-linejoin:round;stroke-miterlimit:10;}
	.st14{fill:none;stroke:#EF9A9A;stroke-linecap:round;stroke-linejoin:round;stroke-miterlimit:10;}
	.st15{fill:none;stroke:#FFE082;stroke-linecap:round;stroke-linejoin:round;stroke-miterlimit:10;}
	.st16{fill:#D32F2F;stroke:#37474F;stroke-linecap:round;stroke-linejoin:round;stroke-miterlimit:10;}
	.st17{fill:#0097A7;stroke:#37474F;stroke-linecap:round;stroke-linejoin:round;stroke-miterlimit:10;}
	.st18{fill:#689F38;stroke:#37474F;stroke-linecap:round;stroke-linejoin:round;stroke-miterlimit:10;}
	.st19{fill:#FFA000;stroke:#37474F;stroke-linecap:round;stroke-linejoin:round;stroke-miterlimit:10;}
	.st20{fill:#FFA000;}
	.st21{fill:#FF6F00;}
	.st22{fill:#D32F2F;}
	.st23{fill:#0097A7;}
	.st24{fill:none;stroke:#80DEEA;stroke-linecap:round;stroke-linejoin:round;stroke-miterlimit:10;}
	.st25{fill:#689F38;}
	.st26{fill:none;stroke:#B0BEC5;stroke-linecap:round;stroke-linejoin:round;stroke-miterlimit:10;}
	.st27{fill:#78909C;stroke:#37474F;stroke-miterlimit:10;}
	.st28{fill:#78909C;}
	.st29{fill:#B71C1C;}
	.st30{fill:#F57F17;}
	.st31{fill:#006064;}
	.st32{fill:#26A69A;stroke:#37474F;stroke-linecap:round;stroke-linejoin:round;stroke-miterlimit:10;}
</style>
<g>
	<path class="st0" d="M15.1,27.1l-3.6-3.6c-1.2-1.2-3.1-1.2-4.2,0l-3.8,3.8c-1.8,1.8-2.9,4.3-2.9,6.9c0,0.1,0,0.3,0,0.4
		c0,16,13,29,29,29c0.1,0,0.3,0,0.4,0c2.6,0,5-1.1,6.9-2.9l3.8-3.8c1.2-1.2,1.2-3.1,0-4.2l-3.6-3.6c-1.2-1.2-3.1-1.2-4.2,0l-5.2,5.2
		c-0.7,0.7-1.8,1-2.8,0.8C17,53.1,10.9,47,9.1,39.4c-0.2-1,0.1-2.1,0.8-2.8l5.2-5.2C16.3,30.1,16.3,28.2,15.1,27.1z"/>
	<path class="st13" d="M15.1,31.3c1.2-1.2,1.2-3.1,0-4.2l-3.6-3.6c-1.2-1.2-3.1-1.2-4.2,0l-1.4,1.4l7.9,3.9v4L15.1,31.3z"/>
	<path class="st13" d="M40.6,52.5l-3.6-3.6c-1.2-1.2-3.1-1.2-4.2,0l-1.4,1.4l7.9,3.9v4l1.4-1.4C41.7,55.6,41.7,53.7,40.6,52.5z"/>
	<path class="st1" d="M15.1,23.1l-3.6-3.6c-1.2-1.2-3.1-1.2-4.2,0l-3.8,3.8c-1.8,1.8-2.9,4.3-2.9,6.9c0,0.1,0,0.3,0,0.4
		c0,16,13,29,29,29c0.1,0,0.3,0,0.4,0c2.6,0,5-1.1,6.9-2.9l3.8-3.8c1.2-1.2,1.2-3.1,0-4.2l-3.6-3.6c-1.2-1.2-3.1-1.2-4.2,0l-5.2,5.2
		c-0.7,0.7-1.8,1-2.8,0.8C17,49.1,10.9,43,9.1,35.4c-0.2-1,0.1-2.1,0.8-2.8l5.2-5.2C16.3,26.1,16.3,24.2,15.1,23.1z"/>
	<path class="st26" d="M9.4,20.6 M2.5,30.1c0-2,0.9-4,2.3-5.5"/>
	<path class="st2" d="M15.1,27.3c1.2-1.2,1.2-3.1,0-4.2l-3.6-3.6c-1.2-1.2-3.1-1.2-4.2,0l-1.4,1.4l7.9,7.9L15.1,27.3z"/>
	<path class="st2" d="M40.6,48.5l-3.6-3.6c-1.2-1.2-3.1-1.2-4.2,0l-1.4,1.4l7.9,7.9l1.4-1.4C41.7,51.6,41.7,49.7,40.6,48.5z"/>
	<path class="st17" d="M27.5,18.2v13c0,2.8,2.2,5,5,5h7c0.6,0,1,0.4,1,1v4.6c0,0.9,1.1,1.3,1.7,0.7l4.8-4.8c0.9-0.9,2.2-1.5,3.5-1.5
		h7.9c2.8,0,5-2.2,5-5v-13c0-2.8-2.2-5-5-5h-26C29.7,13.2,27.5,15.5,27.5,18.2z"/>
	<path class="st11" d="M27.5,14.2v13c0,2.8,2.2,5,5,5h7c0.6,0,1,0.4,1,1v4.6c0,0.9,1.1,1.3,1.7,0.7l4.8-4.8c0.9-0.9,2.2-1.5,3.5-1.5
		h7.9c2.8,0,5-2.2,5-5v-13c0-2.8-2.2-5-5-5h-26C29.7,9.2,27.5,11.5,27.5,14.2z"/>
	<path class="st23" d="M38.4,11c0.4-0.4,0.7-0.8,1-1.2h-6.9c-2.5,0-4.5,2-4.5,4.5v5.7c1-0.1,2-0.5,2.7-1.3L38.4,11z"/>
	<path class="st12" d="M29.4,2.1L27.5,4l-1.9-1.9c-2.1-2.1-5.4-2.1-7.5,0l0,0c-2.1,2.1-2.1,5.4,0,7.5l7.7,7.7c1,1,2.6,1,3.5,0
		l7.7-7.7c2.1-2.1,2.1-5.4,0-7.5l0,0C34.9,0,31.5,0,29.4,2.1z"/>
	<path class="st14" d="M19.5,8.1c-1.3-1.3-1.3-3.4,0-4.7c0.6-0.6,1.5-1,2.3-1c0.9,0,1.7,0.3,2.3,1"/>
	<line class="st5" x1="33.5" y1="16.2" x2="57.5" y2="16.2"/>
	<line class="st5" x1="33.5" y1="20.7" x2="57.5" y2="20.7"/>
	<line class="st5" x1="33.5" y1="25.2" x2="45.5" y2="25.2"/>
</g>
</svg>
