<svg width="100" height="100" viewBox="0 0 100 100" fill="none" xmlns="http://www.w3.org/2000/svg">
<rect width="100" height="100" rx="50" fill="#989A96"/>
<path d="M41.5875 53.9054C36.4912 62.0935 50.7249 68.1837 42.6935 71.2509C34.6632 74.3191 30.7993 67.5234 26.7663 58.863C22.7311 50.2026 25.9719 40.694 34.0033 37.6279C42.0336 34.5586 48.329 43.066 41.5875 53.9054ZM38.042 31.5335C38.0593 29.141 39.8516 27.9837 42.0497 28.0002C44.2466 28.0145 46.0194 29.1934 45.9998 31.5859C45.9734 35.0094 44.1788 36.6801 41.9818 36.6667C39.7849 36.6534 38.0133 34.9581 38.042 31.5335ZM31.3534 32.6959C31.0729 30.9924 32.203 29.9923 33.7676 29.7817C35.33 29.5692 36.7349 30.2295 37.0142 31.932C37.4143 34.3676 36.3451 35.7354 34.7816 35.9459C33.2181 36.1554 31.7535 35.1306 31.3534 32.6959ZM26.4364 35.6502C25.9846 34.1982 26.848 33.2135 28.1838 32.8746C29.5197 32.5357 30.82 32.9691 31.2718 34.4231C31.9167 36.5004 31.1511 37.7963 29.8152 38.1351C28.4793 38.474 27.0802 37.7275 26.4364 35.6502ZM23.7807 39.7473C23.2668 38.6763 23.8129 37.8404 24.797 37.4533C25.7811 37.0662 26.8296 37.2746 27.3446 38.3456C28.0781 39.8777 27.6447 40.9425 26.6606 41.3317C25.6776 41.7188 24.5188 41.2793 23.7807 39.7473ZM22.1574 43.3094C21.747 42.453 22.1816 41.7856 22.9702 41.4765C23.7566 41.1653 24.5935 41.3317 25.0062 42.1881C25.5937 43.4111 25.2454 44.2633 24.4578 44.5745C23.6726 44.8835 22.746 44.5324 22.1574 43.3094Z" fill="white"/>
<path d="M58.4125 53.9054C63.5088 62.0935 49.2751 68.1837 57.3065 71.2509C65.3368 74.3191 69.2007 67.5234 73.2337 58.863C77.2689 50.2026 74.0281 40.694 65.9967 37.6279C57.9664 34.5586 51.671 43.066 58.4125 53.9054ZM61.958 31.5335C61.9407 29.141 60.1484 27.9837 57.9503 28.0002C55.7534 28.0145 53.9806 29.1934 54.0002 31.5859C54.0266 35.0094 55.8212 36.6801 58.0182 36.6667C60.2151 36.6534 61.9867 34.9581 61.958 31.5335ZM68.6466 32.6959C68.9271 30.9924 67.797 29.9923 66.2324 29.7817C64.67 29.5692 63.2651 30.2295 62.9858 31.932C62.5857 34.3676 63.6549 35.7354 65.2184 35.9459C66.7819 36.1554 68.2465 35.1306 68.6466 32.6959ZM73.5636 35.6502C74.0154 34.1982 73.152 33.2135 71.8162 32.8746C70.4803 32.5357 69.18 32.9691 68.7282 34.4231C68.0833 36.5004 68.8489 37.7963 70.1848 38.1351C71.5207 38.474 72.9198 37.7275 73.5636 35.6502ZM76.2193 39.7473C76.7332 38.6763 76.1871 37.8404 75.203 37.4533C74.2189 37.0662 73.1704 37.2746 72.6554 38.3456C71.9219 39.8777 72.3553 40.9425 73.3394 41.3317C74.3224 41.7188 75.4812 41.2793 76.2193 39.7473ZM77.8426 43.3094C78.253 42.453 77.8184 41.7856 77.0298 41.4765C76.2434 41.1653 75.4065 41.3317 74.9938 42.1881C74.4063 43.4111 74.7546 44.2633 75.5422 44.5745C76.3274 44.8835 77.254 44.5324 77.8426 43.3094Z" fill="white"/>
</svg>
